<svg width="472" height="52" viewBox="0 0 472 52" fill="none" xmlns="http://www.w3.org/2000/svg">
<rect x="0.5" y="0.5" width="471" height="51" rx="7.5" fill="white"/>
<rect x="0.5" y="0.5" width="471" height="51" rx="7.5" stroke="#D4D7E5"/>
<path d="M47.864 32H49.048V27.176L52.896 20.48H51.536L48.456 25.832L45.36 20.48H44L47.864 27.176V32ZM56.3374 32.24C57.1907 32.24 57.9214 32.048 58.5294 31.664C59.1427 31.28 59.612 30.7467 59.9374 30.064C60.268 29.376 60.4334 28.5787 60.4334 27.672C60.4334 26.7813 60.2707 25.9947 59.9454 25.312C59.6254 24.624 59.1587 24.088 58.5454 23.704C57.9374 23.3147 57.2014 23.12 56.3374 23.12C55.4947 23.12 54.7667 23.312 54.1534 23.696C53.5454 24.0747 53.076 24.6053 52.7454 25.288C52.4147 25.9707 52.2494 26.7653 52.2494 27.672C52.2494 28.5627 52.4094 29.352 52.7294 30.04C53.0547 30.728 53.5214 31.2667 54.1294 31.656C54.7427 32.0453 55.4787 32.24 56.3374 32.24ZM56.3374 31.112C55.404 31.112 54.6974 30.8 54.2174 30.176C53.7374 29.5467 53.4974 28.712 53.4974 27.672C53.4974 26.664 53.7294 25.8427 54.1934 25.208C54.6574 24.568 55.372 24.248 56.3374 24.248C57.292 24.248 58.004 24.56 58.4734 25.184C58.948 25.8027 59.1854 26.632 59.1854 27.672C59.1854 28.6907 58.9507 29.52 58.4814 30.16C58.012 30.7947 57.2974 31.112 56.3374 31.112ZM65.5021 32.216C66.1208 32.216 66.6781 32.0987 67.1741 31.864C67.6755 31.624 68.0861 31.2693 68.4061 30.8V32H69.4621V23.36H68.2861V27.968C68.2861 28.944 68.0675 29.7093 67.6301 30.264C67.1928 30.8187 66.5581 31.096 65.7261 31.096C65.1235 31.096 64.6381 30.952 64.2701 30.664C63.9021 30.3707 63.6355 29.9733 63.4701 29.472C63.3048 28.9707 63.2221 28.4027 63.2221 27.768V23.36H62.0381V28.112C62.0381 28.5973 62.0968 29.0827 62.2141 29.568C62.3368 30.0533 62.5315 30.496 62.7981 30.896C63.0648 31.296 63.4195 31.616 63.8621 31.856C64.3101 32.096 64.8568 32.216 65.5021 32.216ZM71.6981 32H72.8741V27.688C72.8741 27.1707 72.9328 26.656 73.0501 26.144C73.1728 25.6267 73.4501 25.1973 73.8821 24.856C74.1968 24.6 74.5381 24.4533 74.9061 24.416C75.2795 24.3733 75.6261 24.3893 75.9461 24.464V23.36C75.5675 23.264 75.1381 23.2613 74.6581 23.352C74.1781 23.4373 73.7675 23.6293 73.4261 23.928C73.1701 24.12 72.9461 24.3867 72.7541 24.728V23.36H71.6981V32ZM80.6669 32H87.8669V30.872H81.8429V26.72H86.9069V25.592H81.8429V21.608H87.8669V20.48H80.6669V32ZM89.7839 32H90.9679V26.424C90.9679 25.7467 91.1519 25.2053 91.5199 24.8C91.8879 24.3893 92.3705 24.184 92.9679 24.184C93.5652 24.184 94.0452 24.384 94.4079 24.784C94.7759 25.1787 94.9599 25.72 94.9599 26.408L94.9519 32H96.1119L96.1199 26.424C96.1199 25.8853 96.2185 25.4533 96.4159 25.128C96.6185 24.7973 96.8745 24.5573 97.1839 24.408C97.4932 24.2587 97.8105 24.184 98.1359 24.184C98.7065 24.184 99.1759 24.376 99.5439 24.76C99.9172 25.1387 100.104 25.6613 100.104 26.328L100.096 32H101.272L101.28 26.104C101.28 25.192 101.019 24.4693 100.496 23.936C99.9785 23.3973 99.2825 23.128 98.4079 23.128C97.8319 23.128 97.3145 23.2587 96.8559 23.52C96.3972 23.776 96.0425 24.1307 95.7919 24.584C95.5572 24.1093 95.2185 23.7493 94.7759 23.504C94.3385 23.2533 93.8372 23.128 93.2719 23.128C92.7599 23.128 92.2932 23.232 91.8719 23.44C91.4505 23.6427 91.1065 23.92 90.8399 24.272V23.36H89.7839V32ZM105.826 32.24C107.336 32.24 108.432 31.6827 109.114 30.568V32H110.162V26.632C110.162 26.312 110.146 25.9973 110.114 25.688C110.082 25.3787 110.013 25.0987 109.906 24.848C109.677 24.288 109.285 23.8613 108.73 23.568C108.181 23.2693 107.512 23.12 106.722 23.12C105.773 23.12 105 23.3333 104.402 23.76C103.805 24.1867 103.405 24.7867 103.202 25.56L104.346 25.896C104.512 25.32 104.797 24.8987 105.202 24.632C105.613 24.3653 106.114 24.232 106.706 24.232C107.528 24.232 108.114 24.424 108.466 24.808C108.818 25.1867 109 25.7653 109.01 26.544C108.626 26.5973 108.202 26.6533 107.738 26.712C107.28 26.7707 106.818 26.8373 106.354 26.912C105.89 26.9867 105.464 27.072 105.074 27.168C104.429 27.3387 103.901 27.624 103.49 28.024C103.08 28.4187 102.874 28.9707 102.874 29.68C102.874 30.1387 102.984 30.5627 103.202 30.952C103.421 31.3413 103.749 31.6533 104.186 31.888C104.629 32.1227 105.176 32.24 105.826 32.24ZM105.962 31.224C105.498 31.224 105.125 31.1493 104.842 31C104.565 30.8453 104.362 30.6507 104.234 30.416C104.112 30.176 104.05 29.9307 104.05 29.68C104.05 29.2107 104.208 28.8587 104.522 28.624C104.837 28.3893 105.178 28.2187 105.546 28.112C106.021 27.984 106.573 27.88 107.202 27.8C107.832 27.72 108.429 27.6453 108.994 27.576C108.994 27.7733 108.986 28 108.97 28.256C108.96 28.5067 108.93 28.7387 108.882 28.952C108.77 29.6027 108.461 30.144 107.954 30.576C107.453 31.008 106.789 31.224 105.962 31.224ZM112.405 21.72H113.581V20.4H112.405V21.72ZM112.405 32H113.581V23.36H112.405V32ZM116.139 32H117.315V20.24H116.139V32Z" fill="#B4B7C9"/>
<path d="M32.667 19.3334H19.3337C18.4145 19.3334 17.667 20.0809 17.667 21V31C17.667 31.9192 18.4145 32.6667 19.3337 32.6667H32.667C33.5862 32.6667 34.3337 31.9192 34.3337 31V21C34.3337 20.0809 33.5862 19.3334 32.667 19.3334ZM32.667 21V21.4259L26.0003 26.6117L19.3337 21.4267V21H32.667ZM19.3337 31V23.5367L25.4887 28.3242C25.6387 28.4417 25.8195 28.5 26.0003 28.5C26.1812 28.5 26.362 28.4417 26.512 28.3242L32.667 23.5367L32.6687 31H19.3337Z" fill="#B4B7C9"/>
</svg>
